<svg width="51" height="19" viewBox="0 0 51 19" fill="none" xmlns="http://www.w3.org/2000/svg">
<path d="M7.51172 11.918H3.16406V9.17578H7.51172C8.18359 9.17578 8.73047 9.06641 9.15234 8.84766C9.57422 8.62109 9.88281 8.30859 10.0781 7.91016C10.2734 7.51172 10.3711 7.0625 10.3711 6.5625C10.3711 6.05469 10.2734 5.58203 10.0781 5.14453C9.88281 4.70703 9.57422 4.35547 9.15234 4.08984C8.73047 3.82422 8.18359 3.69141 7.51172 3.69141H4.38281V18H0.867188V0.9375H7.51172C8.84766 0.9375 9.99219 1.17969 10.9453 1.66406C11.9062 2.14062 12.6406 2.80078 13.1484 3.64453C13.6562 4.48828 13.9102 5.45312 13.9102 6.53906C13.9102 7.64062 13.6562 8.59375 13.1484 9.39844C12.6406 10.2031 11.9062 10.8242 10.9453 11.2617C9.99219 11.6992 8.84766 11.918 7.51172 11.918Z" fill="#0F69C4"/>
<path d="M17.9414 0.9375H20.918L25.3008 13.4648L29.6836 0.9375H32.6602L26.4961 18H24.1055L17.9414 0.9375ZM16.3359 0.9375H19.3008L19.8398 13.1484V18H16.3359V0.9375ZM31.3008 0.9375H34.2773V18H30.7617V13.1484L31.3008 0.9375Z" fill="#0F69C4"/>
<path d="M46.7812 0.9375H50.2852V12.2109C50.2852 13.5234 50.0039 14.6289 49.4414 15.5273C48.8867 16.4258 48.1172 17.1016 47.1328 17.5547C46.1562 18.0078 45.0312 18.2344 43.7578 18.2344C42.4844 18.2344 41.3516 18.0078 40.3594 17.5547C39.375 17.1016 38.6016 16.4258 38.0391 15.5273C37.4844 14.6289 37.207 13.5234 37.207 12.2109V0.9375H40.7227V12.2109C40.7227 12.9766 40.8438 13.6016 41.0859 14.0859C41.3281 14.5703 41.6758 14.9258 42.1289 15.1523C42.5898 15.3789 43.1328 15.4922 43.7578 15.4922C44.3984 15.4922 44.9414 15.3789 45.3867 15.1523C45.8398 14.9258 46.1836 14.5703 46.418 14.0859C46.6602 13.6016 46.7812 12.9766 46.7812 12.2109V0.9375Z" fill="#0F69C4"/>
</svg>
