<svg xmlns="http://www.w3.org/2000/svg" width="48" height="49" viewBox="0 0 48 49" fill="none">
    <g clip-path="url(#clip0_5978_12554)">
        <path d="M24 4.5C12.96 4.5 4 13.46 4 24.5C4 35.54 12.96 44.5 24 44.5C35.04 44.5 44 35.54 44 24.5C44 13.46 35.04 4.5 24 4.5ZM18.58 33.08L11.4 25.9C10.62 25.12 10.62 23.86 11.4 23.08C12.18 22.3 13.44 22.3 14.22 23.08L20 28.84L33.76 15.08C34.54 14.3 35.8 14.3 36.58 15.08C37.36 15.86 37.36 17.12 36.58 17.9L21.4 33.08C20.64 33.86 19.36 33.86 18.58 33.08Z" fill="#006636"/>
    </g>
    <defs>
        <clipPath id="clip0_5978_12554">
            <rect width="48" height="48" fill="white" transform="translate(0 0.5)"/>
        </clipPath>
    </defs>
</svg>