<svg width="61" height="61" viewBox="0 0 61 61" fill="none" xmlns="http://www.w3.org/2000/svg">
<g id="div.icon-container">
<g id="PMU">
<path d="M12.998 33.418H8.65039V30.6758H12.998C13.6699 30.6758 14.2168 30.5664 14.6387 30.3477C15.0605 30.1211 15.3691 29.8086 15.5645 29.4102C15.7598 29.0117 15.8574 28.5625 15.8574 28.0625C15.8574 27.5547 15.7598 27.082 15.5645 26.6445C15.3691 26.207 15.0605 25.8555 14.6387 25.5898C14.2168 25.3242 13.6699 25.1914 12.998 25.1914H9.86914V39.5H6.35352V22.4375H12.998C14.334 22.4375 15.4785 22.6797 16.4316 23.1641C17.3926 23.6406 18.127 24.3008 18.6348 25.1445C19.1426 25.9883 19.3965 26.9531 19.3965 28.0391C19.3965 29.1406 19.1426 30.0938 18.6348 30.8984C18.127 31.7031 17.3926 32.3242 16.4316 32.7617C15.4785 33.1992 14.334 33.418 12.998 33.418Z" fill="#0F69C4"/>
<path d="M23.4277 22.4375H26.4043L30.7871 34.9648L35.1699 22.4375H38.1465L31.9824 39.5H29.5918L23.4277 22.4375ZM21.8223 22.4375H24.7871L25.3262 34.6484V39.5H21.8223V22.4375ZM36.7871 22.4375H39.7637V39.5H36.248V34.6484L36.7871 22.4375Z" fill="#0F69C4"/>
<path d="M52.2676 22.4375H55.7715V33.7109C55.7715 35.0234 55.4902 36.1289 54.9277 37.0273C54.373 37.9258 53.6035 38.6016 52.6191 39.0547C51.6426 39.5078 50.5176 39.7344 49.2441 39.7344C47.9707 39.7344 46.8379 39.5078 45.8457 39.0547C44.8613 38.6016 44.0879 37.9258 43.5254 37.0273C42.9707 36.1289 42.6934 35.0234 42.6934 33.7109V22.4375H46.209V33.7109C46.209 34.4766 46.3301 35.1016 46.5723 35.5859C46.8145 36.0703 47.1621 36.4258 47.6152 36.6523C48.0762 36.8789 48.6191 36.9922 49.2441 36.9922C49.8848 36.9922 50.4277 36.8789 50.873 36.6523C51.3262 36.4258 51.6699 36.0703 51.9043 35.5859C52.1465 35.1016 52.2676 34.4766 52.2676 33.7109V22.4375Z" fill="#0F69C4"/>
</g>
<rect x="1.43555" y="1" width="59" height="59" rx="29.5" stroke="#0F69C4"/>
</g>
</svg>
