<svg width="61" height="61" viewBox="0 0 61 61" fill="none" xmlns="http://www.w3.org/2000/svg">
<g id="div.icon-container">
<g id="PMB">
<path d="M12.5938 33.418H8.24609V30.6758H12.5938C13.2656 30.6758 13.8125 30.5664 14.2344 30.3477C14.6562 30.1211 14.9648 29.8086 15.1602 29.4102C15.3555 29.0117 15.4531 28.5625 15.4531 28.0625C15.4531 27.5547 15.3555 27.082 15.1602 26.6445C14.9648 26.207 14.6562 25.8555 14.2344 25.5898C13.8125 25.3242 13.2656 25.1914 12.5938 25.1914H9.46484V39.5H5.94922V22.4375H12.5938C13.9297 22.4375 15.0742 22.6797 16.0273 23.1641C16.9883 23.6406 17.7227 24.3008 18.2305 25.1445C18.7383 25.9883 18.9922 26.9531 18.9922 28.0391C18.9922 29.1406 18.7383 30.0938 18.2305 30.8984C17.7227 31.7031 16.9883 32.3242 16.0273 32.7617C15.0742 33.1992 13.9297 33.418 12.5938 33.418Z" fill="#0F69C4"/>
<path d="M23.0234 22.4375H26L30.3828 34.9648L34.7656 22.4375H37.7422L31.5781 39.5H29.1875L23.0234 22.4375ZM21.418 22.4375H24.3828L24.9219 34.6484V39.5H21.418V22.4375ZM36.3828 22.4375H39.3594V39.5H35.8438V34.6484L36.3828 22.4375Z" fill="#0F69C4"/>
<path d="M49.1211 32.0117H44.7383L44.7148 29.5977H48.3945C49.043 29.5977 49.5742 29.5156 49.9883 29.3516C50.4023 29.1797 50.7109 28.9336 50.9141 28.6133C51.125 28.2852 51.2305 27.8867 51.2305 27.418C51.2305 26.8867 51.1289 26.457 50.9258 26.1289C50.7305 25.8008 50.4219 25.5625 50 25.4141C49.5859 25.2656 49.0508 25.1914 48.3945 25.1914H45.957V39.5H42.4414V22.4375H48.3945C49.3867 22.4375 50.2734 22.5312 51.0547 22.7188C51.8438 22.9062 52.5117 23.1914 53.0586 23.5742C53.6055 23.957 54.0234 24.4414 54.3125 25.0273C54.6016 25.6055 54.7461 26.293 54.7461 27.0898C54.7461 27.793 54.5859 28.4414 54.2656 29.0352C53.9531 29.6289 53.457 30.1133 52.7773 30.4883C52.1055 30.8633 51.2266 31.0703 50.1406 31.1094L49.1211 32.0117ZM48.9688 39.5H43.7773L45.1484 36.7578H48.9688C49.5859 36.7578 50.0898 36.6602 50.4805 36.4648C50.8711 36.2617 51.1602 35.9883 51.3477 35.6445C51.5352 35.3008 51.6289 34.9062 51.6289 34.4609C51.6289 33.9609 51.543 33.5273 51.3711 33.1602C51.207 32.793 50.9414 32.5117 50.5742 32.3164C50.207 32.1133 49.7227 32.0117 49.1211 32.0117H45.7344L45.7578 29.5977H49.9766L50.7852 30.5469C51.8242 30.5312 52.6602 30.7148 53.293 31.0977C53.9336 31.4727 54.3984 31.9609 54.6875 32.5625C54.9844 33.1641 55.1328 33.8086 55.1328 34.4961C55.1328 35.5898 54.8945 36.5117 54.418 37.2617C53.9414 38.0039 53.2422 38.5625 52.3203 38.9375C51.4062 39.3125 50.2891 39.5 48.9688 39.5Z" fill="#0F69C4"/>
</g>
<rect x="1.28516" y="1" width="59" height="59" rx="29.5" stroke="#0F69C4"/>
</g>
</svg>
