<svg width="50" height="18" viewBox="0 0 50 18" fill="none" xmlns="http://www.w3.org/2000/svg">
<path d="M7.25763 11.918H2.90997V9.17578H7.25763C7.9295 9.17578 8.47638 9.06641 8.89825 8.84766C9.32013 8.62109 9.62872 8.30859 9.82404 7.91016C10.0193 7.51172 10.117 7.0625 10.117 6.5625C10.117 6.05469 10.0193 5.58203 9.82404 5.14453C9.62872 4.70703 9.32013 4.35547 8.89825 4.08984C8.47638 3.82422 7.9295 3.69141 7.25763 3.69141H4.12872V18H0.613098V0.9375H7.25763C8.59357 0.9375 9.7381 1.17969 10.6912 1.66406C11.6522 2.14062 12.3865 2.80078 12.8943 3.64453C13.4022 4.48828 13.6561 5.45312 13.6561 6.53906C13.6561 7.64062 13.4022 8.59375 12.8943 9.39844C12.3865 10.2031 11.6522 10.8242 10.6912 11.2617C9.7381 11.6992 8.59357 11.918 7.25763 11.918Z" fill="#0F69C4"/>
<path d="M17.6873 0.9375H20.6639L25.0467 13.4648L29.4295 0.9375H32.4061L26.242 18H23.8514L17.6873 0.9375ZM16.0818 0.9375H19.0467L19.5858 13.1484V18H16.0818V0.9375ZM31.0467 0.9375H34.0233V18H30.5076V13.1484L31.0467 0.9375Z" fill="#0F69C4"/>
<path d="M43.785 10.5117H39.4022L39.3787 8.09766H43.0584C43.7068 8.09766 44.2381 8.01562 44.6522 7.85156C45.0662 7.67969 45.3748 7.43359 45.5779 7.11328C45.7889 6.78516 45.8943 6.38672 45.8943 5.91797C45.8943 5.38672 45.7928 4.95703 45.5897 4.62891C45.3943 4.30078 45.0858 4.0625 44.6639 3.91406C44.2498 3.76562 43.7147 3.69141 43.0584 3.69141H40.6209V18H37.1053V0.9375H43.0584C44.0506 0.9375 44.9373 1.03125 45.7186 1.21875C46.5076 1.40625 47.1756 1.69141 47.7225 2.07422C48.2693 2.45703 48.6873 2.94141 48.9764 3.52734C49.2654 4.10547 49.41 4.79297 49.41 5.58984C49.41 6.29297 49.2498 6.94141 48.9295 7.53516C48.617 8.12891 48.1209 8.61328 47.4412 8.98828C46.7693 9.36328 45.8904 9.57031 44.8045 9.60938L43.785 10.5117ZM43.6326 18H38.4412L39.8123 15.2578H43.6326C44.2498 15.2578 44.7537 15.1602 45.1443 14.9648C45.535 14.7617 45.824 14.4883 46.0115 14.1445C46.199 13.8008 46.2928 13.4062 46.2928 12.9609C46.2928 12.4609 46.2068 12.0273 46.035 11.6602C45.8709 11.293 45.6053 11.0117 45.2381 10.8164C44.8709 10.6133 44.3865 10.5117 43.785 10.5117H40.3983L40.4217 8.09766H44.6404L45.449 9.04688C46.4881 9.03125 47.324 9.21484 47.9568 9.59766C48.5975 9.97266 49.0623 10.4609 49.3514 11.0625C49.6483 11.6641 49.7967 12.3086 49.7967 12.9961C49.7967 14.0898 49.5584 15.0117 49.0818 15.7617C48.6053 16.5039 47.9061 17.0625 46.9842 17.4375C46.0701 17.8125 44.9529 18 43.6326 18Z" fill="#0F69C4"/>
</svg>
