<svg width="51" height="19" viewBox="0 0 51 19" fill="none" xmlns="http://www.w3.org/2000/svg">
<path d="M7.51154 11.918H3.16388V9.17578H7.51154C8.18341 9.17578 8.73029 9.06641 9.15216 8.84766C9.57404 8.62109 9.88263 8.30859 10.0779 7.91016C10.2733 7.51172 10.3709 7.0625 10.3709 6.5625C10.3709 6.05469 10.2733 5.58203 10.0779 5.14453C9.88263 4.70703 9.57404 4.35547 9.15216 4.08984C8.73029 3.82422 8.18341 3.69141 7.51154 3.69141H4.38263V18H0.867004V0.9375H7.51154C8.84747 0.9375 9.992 1.17969 10.9451 1.66406C11.9061 2.14062 12.6404 2.80078 13.1483 3.64453C13.6561 4.48828 13.91 5.45312 13.91 6.53906C13.91 7.64062 13.6561 8.59375 13.1483 9.39844C12.6404 10.2031 11.9061 10.8242 10.9451 11.2617C9.992 11.6992 8.84747 11.918 7.51154 11.918Z" fill="#0F69C4"/>
<path d="M17.9412 0.9375H20.9178L25.3006 13.4648L29.6834 0.9375H32.66L26.4959 18H24.1053L17.9412 0.9375ZM16.3358 0.9375H19.3006L19.8397 13.1484V18H16.3358V0.9375ZM31.3006 0.9375H34.2772V18H30.7615V13.1484L31.3006 0.9375Z" fill="#0F69C4"/>
<path d="M46.7811 0.9375H50.285V12.2109C50.285 13.5234 50.0037 14.6289 49.4412 15.5273C48.8865 16.4258 48.117 17.1016 47.1326 17.5547C46.1561 18.0078 45.0311 18.2344 43.7576 18.2344C42.4842 18.2344 41.3514 18.0078 40.3592 17.5547C39.3748 17.1016 38.6014 16.4258 38.0389 15.5273C37.4842 14.6289 37.2068 13.5234 37.2068 12.2109V0.9375H40.7225V12.2109C40.7225 12.9766 40.8436 13.6016 41.0858 14.0859C41.3279 14.5703 41.6756 14.9258 42.1287 15.1523C42.5897 15.3789 43.1326 15.4922 43.7576 15.4922C44.3983 15.4922 44.9412 15.3789 45.3865 15.1523C45.8397 14.9258 46.1834 14.5703 46.4178 14.0859C46.66 13.6016 46.7811 12.9766 46.7811 12.2109V0.9375Z" fill="#0F69C4"/>
</svg>
