<svg xmlns="http://www.w3.org/2000/svg" width="49" height="48" viewBox="0 0 49 48" fill="none">
  <g clip-path="url(#clip0_6088_10021)">
    <path d="M24.5 4C13.46 4 4.5 12.96 4.5 24C4.5 35.04 13.46 44 24.5 44C35.54 44 44.5 35.04 44.5 24C44.5 12.96 35.54 4 24.5 4ZM24.5 34C23.4 34 22.5 33.1 22.5 32V24C22.5 22.9 23.4 22 24.5 22C25.6 22 26.5 22.9 26.5 24V32C26.5 33.1 25.6 34 24.5 34ZM26.5 18H22.5V14H26.5V18Z" fill="#0C549C"/>
  </g>
  <defs>
    <clipPath id="clip0_6088_10021">
      <rect width="48" height="48" fill="white" transform="translate(0.5)"/>
    </clipPath>
  </defs>
</svg>