<svg width="50" height="18" viewBox="0 0 50 18" fill="none" xmlns="http://www.w3.org/2000/svg">
<path d="M6.92578 11.918H2.57812V9.17578H6.92578C7.59766 9.17578 8.14453 9.06641 8.56641 8.84766C8.98828 8.62109 9.29688 8.30859 9.49219 7.91016C9.6875 7.51172 9.78516 7.0625 9.78516 6.5625C9.78516 6.05469 9.6875 5.58203 9.49219 5.14453C9.29688 4.70703 8.98828 4.35547 8.56641 4.08984C8.14453 3.82422 7.59766 3.69141 6.92578 3.69141H3.79688V18H0.28125V0.9375H6.92578C8.26172 0.9375 9.40625 1.17969 10.3594 1.66406C11.3203 2.14062 12.0547 2.80078 12.5625 3.64453C13.0703 4.48828 13.3242 5.45312 13.3242 6.53906C13.3242 7.64062 13.0703 8.59375 12.5625 9.39844C12.0547 10.2031 11.3203 10.8242 10.3594 11.2617C9.40625 11.6992 8.26172 11.918 6.92578 11.918Z" fill="#0F69C4"/>
<path d="M17.3555 0.9375H20.332L24.7148 13.4648L29.0977 0.9375H32.0742L25.9102 18H23.5195L17.3555 0.9375ZM15.75 0.9375H18.7148L19.2539 13.1484V18H15.75V0.9375ZM30.7148 0.9375H33.6914V18H30.1758V13.1484L30.7148 0.9375Z" fill="#0F69C4"/>
<path d="M43.4531 10.5117H39.0703L39.0469 8.09766H42.7266C43.375 8.09766 43.9062 8.01562 44.3203 7.85156C44.7344 7.67969 45.043 7.43359 45.2461 7.11328C45.457 6.78516 45.5625 6.38672 45.5625 5.91797C45.5625 5.38672 45.4609 4.95703 45.2578 4.62891C45.0625 4.30078 44.7539 4.0625 44.332 3.91406C43.918 3.76562 43.3828 3.69141 42.7266 3.69141H40.2891V18H36.7734V0.9375H42.7266C43.7188 0.9375 44.6055 1.03125 45.3867 1.21875C46.1758 1.40625 46.8438 1.69141 47.3906 2.07422C47.9375 2.45703 48.3555 2.94141 48.6445 3.52734C48.9336 4.10547 49.0781 4.79297 49.0781 5.58984C49.0781 6.29297 48.918 6.94141 48.5977 7.53516C48.2852 8.12891 47.7891 8.61328 47.1094 8.98828C46.4375 9.36328 45.5586 9.57031 44.4727 9.60938L43.4531 10.5117ZM43.3008 18H38.1094L39.4805 15.2578H43.3008C43.918 15.2578 44.4219 15.1602 44.8125 14.9648C45.2031 14.7617 45.4922 14.4883 45.6797 14.1445C45.8672 13.8008 45.9609 13.4062 45.9609 12.9609C45.9609 12.4609 45.875 12.0273 45.7031 11.6602C45.5391 11.293 45.2734 11.0117 44.9062 10.8164C44.5391 10.6133 44.0547 10.5117 43.4531 10.5117H40.0664L40.0898 8.09766H44.3086L45.1172 9.04688C46.1562 9.03125 46.9922 9.21484 47.625 9.59766C48.2656 9.97266 48.7305 10.4609 49.0195 11.0625C49.3164 11.6641 49.4648 12.3086 49.4648 12.9961C49.4648 14.0898 49.2266 15.0117 48.75 15.7617C48.2734 16.5039 47.5742 17.0625 46.6523 17.4375C45.7383 17.8125 44.6211 18 43.3008 18Z" fill="#0F69C4"/>
</svg>
